<svg xmlns="http://www.w3.org/2000/svg" width="1200" height="720" viewBox="0 0 1200 720">
<rect width="100%" height="100%" fill="white"/>
<text x="600.0" y="36" text-anchor="middle" font-size="22" font-family="Arial">Hit Rate (first 1500 steps, avg every 10 steps)</text>
<line x1="90" y1="640.00" x2="980" y2="640.00" stroke="#e5e7eb" stroke-width="1"/>
<text x="78" y="645.00" text-anchor="end" font-size="14" font-family="Arial" fill="#374151">0.011</text>
<line x1="90" y1="526.00" x2="980" y2="526.00" stroke="#e5e7eb" stroke-width="1"/>
<text x="78" y="531.00" text-anchor="end" font-size="14" font-family="Arial" fill="#374151">0.208</text>
<line x1="90" y1="412.00" x2="980" y2="412.00" stroke="#e5e7eb" stroke-width="1"/>
<text x="78" y="417.00" text-anchor="end" font-size="14" font-family="Arial" fill="#374151">0.406</text>
<line x1="90" y1="298.00" x2="980" y2="298.00" stroke="#e5e7eb" stroke-width="1"/>
<text x="78" y="303.00" text-anchor="end" font-size="14" font-family="Arial" fill="#374151">0.604</text>
<line x1="90" y1="184.00" x2="980" y2="184.00" stroke="#e5e7eb" stroke-width="1"/>
<text x="78" y="189.00" text-anchor="end" font-size="14" font-family="Arial" fill="#374151">0.802</text>
<line x1="90" y1="70.00" x2="980" y2="70.00" stroke="#e5e7eb" stroke-width="1"/>
<text x="78" y="75.00" text-anchor="end" font-size="14" font-family="Arial" fill="#374151">1.000</text>
<line x1="90.00" y1="70" x2="90.00" y2="640" stroke="#f3f4f6" stroke-width="1"/>
<text x="90.00" y="668" text-anchor="middle" font-size="14" font-family="Arial" fill="#374151">1</text>
<line x1="179.00" y1="70" x2="179.00" y2="640" stroke="#f3f4f6" stroke-width="1"/>
<text x="179.00" y="668" text-anchor="middle" font-size="14" font-family="Arial" fill="#374151">150</text>
<line x1="268.00" y1="70" x2="268.00" y2="640" stroke="#f3f4f6" stroke-width="1"/>
<text x="268.00" y="668" text-anchor="middle" font-size="14" font-family="Arial" fill="#374151">300</text>
<line x1="357.00" y1="70" x2="357.00" y2="640" stroke="#f3f4f6" stroke-width="1"/>
<text x="357.00" y="668" text-anchor="middle" font-size="14" font-family="Arial" fill="#374151">450</text>
<line x1="446.00" y1="70" x2="446.00" y2="640" stroke="#f3f4f6" stroke-width="1"/>
<text x="446.00" y="668" text-anchor="middle" font-size="14" font-family="Arial" fill="#374151">599</text>
<line x1="535.00" y1="70" x2="535.00" y2="640" stroke="#f3f4f6" stroke-width="1"/>
<text x="535.00" y="668" text-anchor="middle" font-size="14" font-family="Arial" fill="#374151">748</text>
<line x1="624.00" y1="70" x2="624.00" y2="640" stroke="#f3f4f6" stroke-width="1"/>
<text x="624.00" y="668" text-anchor="middle" font-size="14" font-family="Arial" fill="#374151">898</text>
<line x1="713.00" y1="70" x2="713.00" y2="640" stroke="#f3f4f6" stroke-width="1"/>
<text x="713.00" y="668" text-anchor="middle" font-size="14" font-family="Arial" fill="#374151">1048</text>
<line x1="802.00" y1="70" x2="802.00" y2="640" stroke="#f3f4f6" stroke-width="1"/>
<text x="802.00" y="668" text-anchor="middle" font-size="14" font-family="Arial" fill="#374151">1197</text>
<line x1="891.00" y1="70" x2="891.00" y2="640" stroke="#f3f4f6" stroke-width="1"/>
<text x="891.00" y="668" text-anchor="middle" font-size="14" font-family="Arial" fill="#374151">1346</text>
<line x1="980.00" y1="70" x2="980.00" y2="640" stroke="#f3f4f6" stroke-width="1"/>
<text x="980.00" y="668" text-anchor="middle" font-size="14" font-family="Arial" fill="#374151">1496</text>
<line x1="90" y1="640" x2="980" y2="640" stroke="#111827" stroke-width="1.5"/>
<line x1="90" y1="70" x2="90" y2="640" stroke="#111827" stroke-width="1.5"/>
<text x="535.0" y="698" text-anchor="middle" font-size="16" font-family="Arial">step</text>
<text x="26" y="355.0" text-anchor="middle" font-size="16" font-family="Arial" transform="rotate(-90 26 355.0)">hit_rate</text>
<polyline points="90.00,589.94 93.27,134.60 99.23,125.95 105.18,164.31 111.13,152.18 117.09,143.32 123.04,136.62 128.99,153.30 134.95,191.03 140.90,185.68 146.85,175.81 152.81,189.43 158.76,202.77 164.71,167.20 170.67,219.83 176.62,199.95 182.57,184.84 188.53,208.82 194.48,194.03 200.43,172.13 206.38,187.97 212.34,199.39 218.29,207.02 224.24,196.00 230.20,164.86 236.15,118.52 242.10,141.61 248.06,144.71 254.01,126.67 259.96,124.34 265.92,140.14 271.87,131.94 277.82,172.81 283.78,148.58 289.73,128.19 295.68,135.49 301.64,135.22 307.59,157.08 313.54,144.64 319.49,127.98 325.45,147.40 331.40,164.27 337.35,135.00 343.31,142.17 349.26,145.51 355.21,123.22 361.17,150.02 367.12,159.08 373.07,147.22 379.03,145.33 384.98,164.57 390.93,168.78 396.89,179.57 402.84,138.21 408.79,139.09 414.75,143.66 420.70,142.31 426.65,133.38 432.61,133.27 438.56,158.44 444.51,158.60 450.46,133.22 456.42,165.58 462.37,120.49 468.32,128.07 474.28,126.36 480.23,132.33 486.18,123.30 492.14,140.35 498.09,133.86 504.04,135.65 510.00,146.15 515.95,133.24 521.90,130.11 527.86,127.40 533.81,121.64 539.76,137.11 545.72,137.08 551.67,119.93 557.62,134.22 563.58,115.00 569.53,133.85 575.48,129.54 581.43,113.93 587.39,132.50 593.34,136.25 599.29,125.11 605.25,120.64 611.20,111.74 617.15,124.36 623.11,130.13 629.06,117.52 635.01,124.76 640.97,117.03 646.92,119.51 652.87,131.64 658.83,136.35 664.78,133.68 670.73,117.90 676.69,111.16 682.64,121.59 688.59,122.07 694.55,116.42 700.50,127.48 706.45,113.12 712.40,115.59 718.36,117.51 724.31,117.39 730.26,114.55 736.22,111.00 742.17,106.62 748.12,130.30 754.08,134.88 760.03,112.96 765.98,102.74 771.94,125.04 777.89,132.23 783.84,133.44 789.80,127.76 795.75,128.99 801.70,122.98 807.66,99.65 813.61,118.19 819.56,104.46 825.52,97.19 831.47,114.35 837.42,102.83 843.37,103.76 849.33,95.77 855.28,107.00 861.23,97.45 867.19,104.01 873.14,119.05 879.09,146.95 885.05,116.99 891.00,133.62 896.95,112.09 902.91,103.11 908.86,93.83 914.81,104.25 920.77,103.66 926.72,102.33 932.67,98.22 938.63,110.57 944.58,99.54 950.53,119.88 956.48,104.11 962.44,103.33 968.39,115.81 974.34,117.31 980.00,131.33" fill="none" stroke="#1f77b4" stroke-width="2.5" stroke-linejoin="round" stroke-linecap="round"/>
<line x1="1010" y1="90" x2="1038" y2="90" stroke="#1f77b4" stroke-width="3"/>
<text x="1048" y="95" font-size="15" font-family="Arial" fill="#111827">fifo_4096</text>
<polyline points="90.00,598.79 93.27,207.61 99.23,201.80 105.18,219.70 111.13,242.48 117.09,211.91 123.04,204.73 128.99,267.67 134.95,243.18 140.90,221.03 146.85,207.24 152.81,254.49 158.76,239.26 164.71,247.62 170.67,261.66 176.62,259.20 182.57,237.51 188.53,282.86 194.48,303.17 200.43,272.93 206.38,274.63 212.34,267.33 218.29,243.17 224.24,262.86 230.20,248.98 236.15,278.30 242.10,260.52 248.06,276.77 254.01,180.65 259.96,194.66 265.92,203.97 271.87,200.54 277.82,200.42 283.78,200.08 289.73,191.91 295.68,205.52 301.64,216.56 307.59,207.31 313.54,214.46 319.49,221.38 325.45,188.40 331.40,209.24 337.35,228.34 343.31,200.53 349.26,212.04 355.21,175.13 361.17,196.32 367.12,212.94 373.07,196.94 379.03,180.87 384.98,193.33 390.93,200.95 396.89,221.69 402.84,192.98 408.79,188.24 414.75,215.87 420.70,198.78 426.65,196.60 432.61,195.91 438.56,204.08 444.51,241.49 450.46,217.93 456.42,214.82 462.37,172.52 468.32,207.30 474.28,194.65 480.23,176.28 486.18,178.33 492.14,182.52 498.09,184.98 504.04,181.55 510.00,207.94 515.95,172.26 521.90,173.67 527.86,188.04 533.81,192.92 539.76,174.19 545.72,168.68 551.67,169.74 557.62,207.63 563.58,242.02 569.53,180.87 575.48,173.42 581.43,174.11 587.39,192.67 593.34,162.64 599.29,183.15 605.25,168.52 611.20,186.05 617.15,155.84 623.11,164.12 629.06,161.69 635.01,184.18 640.97,153.66 646.92,168.07 652.87,174.08 658.83,165.75 664.78,171.19 670.73,185.23 676.69,192.53 682.64,203.16 688.59,163.76 694.55,156.98 700.50,183.60 706.45,158.74 712.40,165.87 718.36,153.59 724.31,148.14 730.26,154.55 736.22,164.36 742.17,177.46 748.12,157.29 754.08,166.23 760.03,204.51 765.98,155.01 771.94,189.63 777.89,210.32 783.84,212.39 789.80,150.11 795.75,154.48 801.70,183.75 807.66,176.61 813.61,180.63 819.56,179.98 825.52,197.57 831.47,183.76 837.42,163.05 843.37,154.66 849.33,142.41 855.28,133.67 861.23,139.85 867.19,158.97 873.14,152.82 879.09,147.88 885.05,142.98 891.00,161.46 896.95,158.16 902.91,179.24 908.86,204.78 914.81,188.54 920.77,186.11 926.72,179.69 932.67,161.75 938.63,142.77 944.58,169.72 950.53,158.14 956.48,149.65 962.44,157.58 968.39,166.57 974.34,154.57 980.00,169.49" fill="none" stroke="#ff7f0e" stroke-width="2.5" stroke-linejoin="round" stroke-linecap="round"/>
<line x1="1010" y1="120" x2="1038" y2="120" stroke="#ff7f0e" stroke-width="3"/>
<text x="1048" y="125" font-size="15" font-family="Arial" fill="#111827">lru_2048</text>
<polyline points="90.00,589.74 93.27,162.80 99.23,134.28 105.18,130.43 111.13,139.44 117.09,120.14 123.04,123.85 128.99,153.27 134.95,144.36 140.90,128.70 146.85,133.96 152.81,160.64 158.76,151.41 164.71,150.66 170.67,156.80 176.62,177.08 182.57,147.91 188.53,179.32 194.48,178.75 200.43,165.52 206.38,167.28 212.34,161.47 218.29,148.67 224.24,157.71 230.20,158.09 236.15,165.34 242.10,162.54 248.06,153.46 254.01,118.62 259.96,121.07 265.92,119.66 271.87,118.36 277.82,105.32 283.78,122.95 289.73,119.15 295.68,127.22 301.64,127.21 307.59,137.44 313.54,117.45 319.49,130.92 325.45,118.84 331.40,123.36 337.35,117.64 343.31,134.40 349.26,137.01 355.21,134.98 361.17,135.40 367.12,125.32 373.07,122.79 379.03,116.81 384.98,117.90 390.93,132.18 396.89,135.23 402.84,136.25 408.79,135.47 414.75,126.05 420.70,120.92 426.65,131.87 432.61,113.18 438.56,109.14 444.51,124.38 450.46,142.70 456.42,131.48 462.37,123.54 468.32,131.79 474.28,118.93 480.23,106.47 486.18,118.24 492.14,113.29 498.09,125.26 504.04,100.54 510.00,116.02 515.95,124.62 521.90,127.44 527.86,118.19 533.81,112.90 539.76,109.04 545.72,112.71 551.67,109.52 557.62,102.95 563.58,108.52 569.53,131.60 575.48,106.91 581.43,111.38 587.39,103.37 593.34,113.75 599.29,125.83 605.25,108.33 611.20,98.21 617.15,115.71 623.11,109.54 629.06,117.00 635.01,108.32 640.97,99.58 646.92,108.78 652.87,110.34 658.83,123.78 664.78,112.48 670.73,101.00 676.69,93.75 682.64,94.60 688.59,109.74 694.55,108.56 700.50,103.82 706.45,98.38 712.40,106.87 718.36,105.80 724.31,94.17 730.26,108.95 736.22,115.80 742.17,123.28 748.12,111.18 754.08,116.65 760.03,104.24 765.98,94.48 771.94,99.81 777.89,98.98 783.84,92.04 789.80,99.03 795.75,89.40 801.70,95.00 807.66,98.55 813.61,92.31 819.56,94.38 825.52,87.97 831.47,90.47 837.42,99.35 843.37,105.38 849.33,117.68 855.28,104.34 861.23,109.61 867.19,100.09 873.14,90.13 879.09,86.93 885.05,99.10 891.00,98.16 896.95,88.72 902.91,88.14 908.86,97.73 914.81,106.43 920.77,92.45 926.72,91.71 932.67,90.04 938.63,98.91 944.58,104.36 950.53,100.49 956.48,115.00 962.44,102.97 968.39,90.83 974.34,84.59 980.00,83.70" fill="none" stroke="#2ca02c" stroke-width="2.5" stroke-linejoin="round" stroke-linecap="round"/>
<line x1="1010" y1="150" x2="1038" y2="150" stroke="#2ca02c" stroke-width="3"/>
<text x="1048" y="155" font-size="15" font-family="Arial" fill="#111827">lru_4096</text>
<polyline points="90.00,589.45 93.27,146.41 99.23,125.66 105.18,158.18 111.13,143.92 117.09,131.73 123.04,147.80 128.99,183.77 134.95,180.35 140.90,172.06 146.85,180.66 152.81,191.46 158.76,161.23 164.71,206.91 170.67,192.49 176.62,172.63 182.57,191.29 188.53,188.90 194.48,167.51 200.43,171.89 206.38,189.63 212.34,191.83 218.29,186.32 224.24,170.08 230.20,117.09 236.15,124.09 242.10,125.51 248.06,140.29 254.01,117.82 259.96,125.30 265.92,124.21 271.87,118.37 277.82,129.85 283.78,147.49 289.73,131.80 295.68,155.88 301.64,170.99 307.59,178.97 313.54,150.78 319.49,127.17 325.45,139.05 331.40,142.62 337.35,141.16 343.31,152.00 349.26,126.34 355.21,135.96 361.17,145.46 367.12,130.05 373.07,146.41 379.03,138.24 384.98,127.55 390.93,137.50 396.89,126.77 402.84,142.93 408.79,135.32 414.75,124.92 420.70,115.58 426.65,124.50 432.61,114.48 438.56,138.39 444.51,139.16 450.46,125.02 456.42,145.45 462.37,126.23 468.32,122.68 474.28,121.07 480.23,130.99 486.18,143.41 492.14,135.45 498.09,120.68 504.04,110.34 510.00,117.12 515.95,106.43 521.90,116.34 527.86,118.74 533.81,110.17 539.76,110.44 545.72,138.35 551.67,116.44 557.62,138.45 563.58,112.84 569.53,107.81 575.48,129.93 581.43,107.28 587.39,133.85 593.34,117.01 599.29,124.69 605.25,111.73 611.20,121.72 617.15,110.25 623.11,106.01 629.06,130.63 635.01,115.99 640.97,133.47 646.92,124.38 652.87,108.28 658.83,113.16 664.78,138.45 670.73,117.48 676.69,113.04 682.64,120.35 688.59,111.51 694.55,96.46 700.50,107.13 706.45,110.49 712.40,114.50 718.36,113.05 724.31,139.49 730.26,119.79 736.22,118.55 742.17,105.63 748.12,100.77 754.08,106.17 760.03,117.86 765.98,138.06 771.94,112.37 777.89,133.90 783.84,116.45 789.80,104.37 795.75,97.46 801.70,114.07 807.66,100.30 813.61,92.43 819.56,104.21 825.52,92.14 831.47,97.80 837.42,95.27 843.37,105.71 849.33,98.44 855.28,95.89 861.23,112.61 867.19,112.15 873.14,129.13 879.09,128.94 885.05,109.15 891.00,102.80 896.95,97.06 902.91,97.38 908.86,103.20 914.81,98.96 920.77,92.30 926.72,108.14 932.67,105.02 938.63,103.75 944.58,97.60 950.53,108.03 956.48,113.52 962.44,110.22 968.39,133.20 974.34,107.99 980.00,92.66" fill="none" stroke="#d62728" stroke-width="2.5" stroke-linejoin="round" stroke-linecap="round"/>
<line x1="1010" y1="180" x2="1038" y2="180" stroke="#d62728" stroke-width="3"/>
<text x="1048" y="185" font-size="15" font-family="Arial" fill="#111827">random_4096</text>
</svg>