<svg xmlns="http://www.w3.org/2000/svg" width="1200" height="720" viewBox="0 0 1200 720">
<rect width="100%" height="100%" fill="white"/>
<text x="600.0" y="36" text-anchor="middle" font-size="22" font-family="Arial">Miss Count (first 1500 steps, avg every 50 steps)</text>
<line x1="90" y1="640.00" x2="980" y2="640.00" stroke="#e5e7eb" stroke-width="1"/>
<text x="78" y="645.00" text-anchor="end" font-size="14" font-family="Arial" fill="#374151">-63.1</text>
<line x1="90" y1="526.00" x2="980" y2="526.00" stroke="#e5e7eb" stroke-width="1"/>
<text x="78" y="531.00" text-anchor="end" font-size="14" font-family="Arial" fill="#374151">354.3</text>
<line x1="90" y1="412.00" x2="980" y2="412.00" stroke="#e5e7eb" stroke-width="1"/>
<text x="78" y="417.00" text-anchor="end" font-size="14" font-family="Arial" fill="#374151">771.6</text>
<line x1="90" y1="298.00" x2="980" y2="298.00" stroke="#e5e7eb" stroke-width="1"/>
<text x="78" y="303.00" text-anchor="end" font-size="14" font-family="Arial" fill="#374151">1189.0</text>
<line x1="90" y1="184.00" x2="980" y2="184.00" stroke="#e5e7eb" stroke-width="1"/>
<text x="78" y="189.00" text-anchor="end" font-size="14" font-family="Arial" fill="#374151">1606.4</text>
<line x1="90" y1="70.00" x2="980" y2="70.00" stroke="#e5e7eb" stroke-width="1"/>
<text x="78" y="75.00" text-anchor="end" font-size="14" font-family="Arial" fill="#374151">2023.8</text>
<line x1="90.00" y1="70" x2="90.00" y2="640" stroke="#f3f4f6" stroke-width="1"/>
<text x="90.00" y="668" text-anchor="middle" font-size="14" font-family="Arial" fill="#374151">1</text>
<line x1="179.00" y1="70" x2="179.00" y2="640" stroke="#f3f4f6" stroke-width="1"/>
<text x="179.00" y="668" text-anchor="middle" font-size="14" font-family="Arial" fill="#374151">148</text>
<line x1="268.00" y1="70" x2="268.00" y2="640" stroke="#f3f4f6" stroke-width="1"/>
<text x="268.00" y="668" text-anchor="middle" font-size="14" font-family="Arial" fill="#374151">296</text>
<line x1="357.00" y1="70" x2="357.00" y2="640" stroke="#f3f4f6" stroke-width="1"/>
<text x="357.00" y="668" text-anchor="middle" font-size="14" font-family="Arial" fill="#374151">444</text>
<line x1="446.00" y1="70" x2="446.00" y2="640" stroke="#f3f4f6" stroke-width="1"/>
<text x="446.00" y="668" text-anchor="middle" font-size="14" font-family="Arial" fill="#374151">591</text>
<line x1="535.00" y1="70" x2="535.00" y2="640" stroke="#f3f4f6" stroke-width="1"/>
<text x="535.00" y="668" text-anchor="middle" font-size="14" font-family="Arial" fill="#374151">738</text>
<line x1="624.00" y1="70" x2="624.00" y2="640" stroke="#f3f4f6" stroke-width="1"/>
<text x="624.00" y="668" text-anchor="middle" font-size="14" font-family="Arial" fill="#374151">886</text>
<line x1="713.00" y1="70" x2="713.00" y2="640" stroke="#f3f4f6" stroke-width="1"/>
<text x="713.00" y="668" text-anchor="middle" font-size="14" font-family="Arial" fill="#374151">1034</text>
<line x1="802.00" y1="70" x2="802.00" y2="640" stroke="#f3f4f6" stroke-width="1"/>
<text x="802.00" y="668" text-anchor="middle" font-size="14" font-family="Arial" fill="#374151">1181</text>
<line x1="891.00" y1="70" x2="891.00" y2="640" stroke="#f3f4f6" stroke-width="1"/>
<text x="891.00" y="668" text-anchor="middle" font-size="14" font-family="Arial" fill="#374151">1328</text>
<line x1="980.00" y1="70" x2="980.00" y2="640" stroke="#f3f4f6" stroke-width="1"/>
<text x="980.00" y="668" text-anchor="middle" font-size="14" font-family="Arial" fill="#374151">1476</text>
<line x1="90" y1="640" x2="980" y2="640" stroke="#111827" stroke-width="1.5"/>
<line x1="90" y1="70" x2="90" y2="640" stroke="#111827" stroke-width="1.5"/>
<text x="535.0" y="698" text-anchor="middle" font-size="16" font-family="Arial">step</text>
<text x="26" y="355.0" text-anchor="middle" font-size="16" font-family="Arial" transform="rotate(-90 26 355.0)">miss_count</text>
<polyline points="90.00,109.31 105.39,480.32 135.56,468.60 165.73,445.61 195.89,424.47 226.06,438.15 256.23,473.90 286.40,496.83 316.57,487.19 346.74,491.63 376.91,500.34 407.08,492.70 437.25,489.38 467.42,495.13 497.59,515.25 527.76,509.19 557.93,503.86 588.10,519.12 618.27,524.17 648.44,527.28 678.61,512.49 708.78,529.75 738.95,535.74 769.12,521.26 799.28,513.81 829.45,512.35 859.62,548.26 889.79,542.35 919.96,512.69 950.13,533.03 980.00,535.99" fill="none" stroke="#1f77b4" stroke-width="2.5" stroke-linejoin="round" stroke-linecap="round"/>
<line x1="1010" y1="90" x2="1038" y2="90" stroke="#1f77b4" stroke-width="3"/>
<text x="1048" y="95" font-size="15" font-family="Arial" fill="#111827">2048</text>
<polyline points="90.00,117.91 105.39,550.84 135.56,527.13 165.73,500.58 195.89,506.68 226.06,518.71 256.23,559.17 286.40,551.49 316.57,552.41 346.74,552.82 376.91,541.94 407.08,541.34 437.25,549.75 467.42,559.90 497.59,561.50 527.76,562.85 557.93,565.80 588.10,565.27 618.27,571.89 648.44,572.18 678.61,570.20 708.78,575.25 738.95,580.61 769.12,573.07 799.28,565.40 829.45,587.06 859.62,592.31 889.79,570.21 919.96,590.34 950.13,587.70 980.00,580.01" fill="none" stroke="#ff7f0e" stroke-width="2.5" stroke-linejoin="round" stroke-linecap="round"/>
<line x1="1010" y1="120" x2="1038" y2="120" stroke="#ff7f0e" stroke-width="3"/>
<text x="1048" y="125" font-size="15" font-family="Arial" fill="#111827">fifo_4096</text>
<polyline points="90.00,118.38 105.39,553.65 135.56,522.82 165.73,511.16 195.89,514.16 226.06,537.43 256.23,567.78 286.40,558.02 316.57,541.79 346.74,555.17 376.91,557.18 407.08,561.12 437.25,567.98 467.42,566.36 497.59,566.28 527.76,580.28 557.93,571.01 588.10,575.01 618.27,579.19 648.44,571.74 678.61,573.73 708.78,585.85 738.95,574.89 769.12,579.02 799.28,580.77 829.45,596.18 859.62,592.10 889.79,577.68 919.96,595.79 950.13,589.26 980.00,582.08" fill="none" stroke="#d62728" stroke-width="2.5" stroke-linejoin="round" stroke-linecap="round"/>
<line x1="1010" y1="150" x2="1038" y2="150" stroke="#d62728" stroke-width="3"/>
<text x="1048" y="155" font-size="15" font-family="Arial" fill="#111827">random_4096</text>
<polyline points="90.00,118.10 105.39,557.30 135.56,557.88 165.73,536.04 195.89,527.84 226.06,537.07 256.23,559.58 286.40,575.57 316.57,568.03 346.74,565.01 376.91,570.67 407.08,561.56 437.25,574.31 467.42,564.81 497.59,581.24 527.76,574.38 557.93,585.33 588.10,580.62 618.27,582.44 648.44,585.09 678.61,588.66 708.78,588.32 738.95,584.31 769.12,588.52 799.28,598.60 829.45,600.69 859.62,586.57 889.79,598.60 919.96,598.79 950.13,596.45 980.00,597.85" fill="none" stroke="#2ca02c" stroke-width="2.5" stroke-linejoin="round" stroke-linecap="round"/>
<line x1="1010" y1="180" x2="1038" y2="180" stroke="#2ca02c" stroke-width="3"/>
<text x="1048" y="185" font-size="15" font-family="Arial" fill="#111827">lru_4096</text>
</svg>