<svg xmlns="http://www.w3.org/2000/svg" width="1200" height="720" viewBox="0 0 1200 720">
<rect width="100%" height="100%" fill="white"/>
<text x="600.0" y="36" text-anchor="middle" font-size="22" font-family="Arial">Hit Rate (first 1500 steps, avg every 100 steps)</text>
<line x1="90" y1="640.00" x2="980" y2="640.00" stroke="#e5e7eb" stroke-width="1"/>
<text x="78" y="645.00" text-anchor="end" font-size="14" font-family="Arial" fill="#374151">0.012</text>
<line x1="90" y1="526.00" x2="980" y2="526.00" stroke="#e5e7eb" stroke-width="1"/>
<text x="78" y="531.00" text-anchor="end" font-size="14" font-family="Arial" fill="#374151">0.210</text>
<line x1="90" y1="412.00" x2="980" y2="412.00" stroke="#e5e7eb" stroke-width="1"/>
<text x="78" y="417.00" text-anchor="end" font-size="14" font-family="Arial" fill="#374151">0.407</text>
<line x1="90" y1="298.00" x2="980" y2="298.00" stroke="#e5e7eb" stroke-width="1"/>
<text x="78" y="303.00" text-anchor="end" font-size="14" font-family="Arial" fill="#374151">0.605</text>
<line x1="90" y1="184.00" x2="980" y2="184.00" stroke="#e5e7eb" stroke-width="1"/>
<text x="78" y="189.00" text-anchor="end" font-size="14" font-family="Arial" fill="#374151">0.802</text>
<line x1="90" y1="70.00" x2="980" y2="70.00" stroke="#e5e7eb" stroke-width="1"/>
<text x="78" y="75.00" text-anchor="end" font-size="14" font-family="Arial" fill="#374151">1.000</text>
<line x1="90.00" y1="70" x2="90.00" y2="640" stroke="#f3f4f6" stroke-width="1"/>
<text x="90.00" y="668" text-anchor="middle" font-size="14" font-family="Arial" fill="#374151">1</text>
<line x1="179.00" y1="70" x2="179.00" y2="640" stroke="#f3f4f6" stroke-width="1"/>
<text x="179.00" y="668" text-anchor="middle" font-size="14" font-family="Arial" fill="#374151">146</text>
<line x1="268.00" y1="70" x2="268.00" y2="640" stroke="#f3f4f6" stroke-width="1"/>
<text x="268.00" y="668" text-anchor="middle" font-size="14" font-family="Arial" fill="#374151">291</text>
<line x1="357.00" y1="70" x2="357.00" y2="640" stroke="#f3f4f6" stroke-width="1"/>
<text x="357.00" y="668" text-anchor="middle" font-size="14" font-family="Arial" fill="#374151">436</text>
<line x1="446.00" y1="70" x2="446.00" y2="640" stroke="#f3f4f6" stroke-width="1"/>
<text x="446.00" y="668" text-anchor="middle" font-size="14" font-family="Arial" fill="#374151">581</text>
<line x1="535.00" y1="70" x2="535.00" y2="640" stroke="#f3f4f6" stroke-width="1"/>
<text x="535.00" y="668" text-anchor="middle" font-size="14" font-family="Arial" fill="#374151">726</text>
<line x1="624.00" y1="70" x2="624.00" y2="640" stroke="#f3f4f6" stroke-width="1"/>
<text x="624.00" y="668" text-anchor="middle" font-size="14" font-family="Arial" fill="#374151">871</text>
<line x1="713.00" y1="70" x2="713.00" y2="640" stroke="#f3f4f6" stroke-width="1"/>
<text x="713.00" y="668" text-anchor="middle" font-size="14" font-family="Arial" fill="#374151">1016</text>
<line x1="802.00" y1="70" x2="802.00" y2="640" stroke="#f3f4f6" stroke-width="1"/>
<text x="802.00" y="668" text-anchor="middle" font-size="14" font-family="Arial" fill="#374151">1161</text>
<line x1="891.00" y1="70" x2="891.00" y2="640" stroke="#f3f4f6" stroke-width="1"/>
<text x="891.00" y="668" text-anchor="middle" font-size="14" font-family="Arial" fill="#374151">1306</text>
<line x1="980.00" y1="70" x2="980.00" y2="640" stroke="#f3f4f6" stroke-width="1"/>
<text x="980.00" y="668" text-anchor="middle" font-size="14" font-family="Arial" fill="#374151">1451</text>
<line x1="90" y1="640" x2="980" y2="640" stroke="#111827" stroke-width="1.5"/>
<line x1="90" y1="70" x2="90" y2="640" stroke="#111827" stroke-width="1.5"/>
<text x="535.0" y="698" text-anchor="middle" font-size="16" font-family="Arial">step</text>
<text x="26" y="355.0" text-anchor="middle" font-size="16" font-family="Arial" transform="rotate(-90 26 355.0)">hit_rate</text>
<polyline points="90.00,599.62 121.00,222.97 182.38,263.63 243.76,241.99 305.13,204.87 366.51,200.77 427.89,205.87 489.27,191.28 550.65,189.90 612.03,174.30 673.41,176.12 734.79,162.85 796.17,178.54 857.55,165.37 918.93,168.25 980.00,161.05" fill="none" stroke="#1f77b4" stroke-width="2.5" stroke-linejoin="round" stroke-linecap="round"/>
<line x1="1010" y1="90" x2="1038" y2="90" stroke="#1f77b4" stroke-width="3"/>
<text x="1048" y="95" font-size="15" font-family="Arial" fill="#111827">2048</text>
<polyline points="90.00,590.75 121.00,156.42 182.38,192.89 243.76,156.46 305.13,143.04 366.51,147.76 427.89,149.65 489.27,134.02 550.65,130.28 612.03,125.89 673.41,123.20 734.79,116.25 796.17,125.22 857.55,104.12 918.93,113.82 980.00,110.09" fill="none" stroke="#ff7f0e" stroke-width="2.5" stroke-linejoin="round" stroke-linecap="round"/>
<line x1="1010" y1="120" x2="1038" y2="120" stroke="#ff7f0e" stroke-width="3"/>
<text x="1048" y="125" font-size="15" font-family="Arial" fill="#111827">fifo_4096</text>
<polyline points="90.00,590.26 121.00,157.19 182.38,183.57 243.76,142.37 305.13,145.15 366.51,138.69 427.89,130.05 489.27,128.22 550.65,118.61 612.03,117.10 673.41,121.60 734.79,113.73 796.17,114.22 857.55,99.53 918.93,107.17 980.00,108.23" fill="none" stroke="#d62728" stroke-width="2.5" stroke-linejoin="round" stroke-linecap="round"/>
<line x1="1010" y1="150" x2="1038" y2="150" stroke="#d62728" stroke-width="3"/>
<text x="1048" y="155" font-size="15" font-family="Arial" fill="#111827">random_4096</text>
<polyline points="90.00,590.55 121.00,137.23 182.38,163.68 243.76,146.78 305.13,122.57 366.51,126.65 427.89,126.56 489.27,121.30 550.65,114.26 612.03,112.53 673.41,107.02 734.79,107.60 796.17,100.13 857.55,100.05 918.93,94.83 980.00,96.43" fill="none" stroke="#2ca02c" stroke-width="2.5" stroke-linejoin="round" stroke-linecap="round"/>
<line x1="1010" y1="180" x2="1038" y2="180" stroke="#2ca02c" stroke-width="3"/>
<text x="1048" y="185" font-size="15" font-family="Arial" fill="#111827">lru_4096</text>
</svg>