<svg xmlns="http://www.w3.org/2000/svg" width="1200" height="720" viewBox="0 0 1200 720">
<rect width="100%" height="100%" fill="white"/>
<text x="600.0" y="36" text-anchor="middle" font-size="22" font-family="Arial">Miss Count (first 1500 steps, avg every 10 steps)</text>
<line x1="90" y1="640.00" x2="980" y2="640.00" stroke="#e5e7eb" stroke-width="1"/>
<text x="78" y="645.00" text-anchor="end" font-size="14" font-family="Arial" fill="#374151">-97.8</text>
<line x1="90" y1="526.00" x2="980" y2="526.00" stroke="#e5e7eb" stroke-width="1"/>
<text x="78" y="531.00" text-anchor="end" font-size="14" font-family="Arial" fill="#374151">327.0</text>
<line x1="90" y1="412.00" x2="980" y2="412.00" stroke="#e5e7eb" stroke-width="1"/>
<text x="78" y="417.00" text-anchor="end" font-size="14" font-family="Arial" fill="#374151">751.9</text>
<line x1="90" y1="298.00" x2="980" y2="298.00" stroke="#e5e7eb" stroke-width="1"/>
<text x="78" y="303.00" text-anchor="end" font-size="14" font-family="Arial" fill="#374151">1176.7</text>
<line x1="90" y1="184.00" x2="980" y2="184.00" stroke="#e5e7eb" stroke-width="1"/>
<text x="78" y="189.00" text-anchor="end" font-size="14" font-family="Arial" fill="#374151">1601.5</text>
<line x1="90" y1="70.00" x2="980" y2="70.00" stroke="#e5e7eb" stroke-width="1"/>
<text x="78" y="75.00" text-anchor="end" font-size="14" font-family="Arial" fill="#374151">2026.3</text>
<line x1="90.00" y1="70" x2="90.00" y2="640" stroke="#f3f4f6" stroke-width="1"/>
<text x="90.00" y="668" text-anchor="middle" font-size="14" font-family="Arial" fill="#374151">1</text>
<line x1="179.00" y1="70" x2="179.00" y2="640" stroke="#f3f4f6" stroke-width="1"/>
<text x="179.00" y="668" text-anchor="middle" font-size="14" font-family="Arial" fill="#374151">150</text>
<line x1="268.00" y1="70" x2="268.00" y2="640" stroke="#f3f4f6" stroke-width="1"/>
<text x="268.00" y="668" text-anchor="middle" font-size="14" font-family="Arial" fill="#374151">300</text>
<line x1="357.00" y1="70" x2="357.00" y2="640" stroke="#f3f4f6" stroke-width="1"/>
<text x="357.00" y="668" text-anchor="middle" font-size="14" font-family="Arial" fill="#374151">450</text>
<line x1="446.00" y1="70" x2="446.00" y2="640" stroke="#f3f4f6" stroke-width="1"/>
<text x="446.00" y="668" text-anchor="middle" font-size="14" font-family="Arial" fill="#374151">599</text>
<line x1="535.00" y1="70" x2="535.00" y2="640" stroke="#f3f4f6" stroke-width="1"/>
<text x="535.00" y="668" text-anchor="middle" font-size="14" font-family="Arial" fill="#374151">748</text>
<line x1="624.00" y1="70" x2="624.00" y2="640" stroke="#f3f4f6" stroke-width="1"/>
<text x="624.00" y="668" text-anchor="middle" font-size="14" font-family="Arial" fill="#374151">898</text>
<line x1="713.00" y1="70" x2="713.00" y2="640" stroke="#f3f4f6" stroke-width="1"/>
<text x="713.00" y="668" text-anchor="middle" font-size="14" font-family="Arial" fill="#374151">1048</text>
<line x1="802.00" y1="70" x2="802.00" y2="640" stroke="#f3f4f6" stroke-width="1"/>
<text x="802.00" y="668" text-anchor="middle" font-size="14" font-family="Arial" fill="#374151">1197</text>
<line x1="891.00" y1="70" x2="891.00" y2="640" stroke="#f3f4f6" stroke-width="1"/>
<text x="891.00" y="668" text-anchor="middle" font-size="14" font-family="Arial" fill="#374151">1346</text>
<line x1="980.00" y1="70" x2="980.00" y2="640" stroke="#f3f4f6" stroke-width="1"/>
<text x="980.00" y="668" text-anchor="middle" font-size="14" font-family="Arial" fill="#374151">1496</text>
<line x1="90" y1="640" x2="980" y2="640" stroke="#111827" stroke-width="1.5"/>
<line x1="90" y1="70" x2="90" y2="640" stroke="#111827" stroke-width="1.5"/>
<text x="535.0" y="698" text-anchor="middle" font-size="16" font-family="Arial">step</text>
<text x="26" y="355.0" text-anchor="middle" font-size="16" font-family="Arial" transform="rotate(-90 26 355.0)">miss_count</text>
<polyline points="90.00,117.76 93.27,552.13 99.23,560.39 105.18,523.79 111.13,535.36 117.09,543.81 123.04,550.20 128.99,534.29 134.95,498.30 140.90,503.41 146.85,512.81 152.81,499.82 158.76,487.10 164.71,521.03 170.67,470.83 176.62,489.79 182.57,504.20 188.53,481.33 194.48,495.44 200.43,516.33 206.38,501.22 212.34,490.32 218.29,483.04 224.24,493.56 230.20,523.27 236.15,567.47 242.10,545.44 248.06,542.49 254.01,559.69 259.96,561.92 265.92,546.84 271.87,554.67 277.82,515.68 283.78,538.79 289.73,558.25 295.68,551.29 301.64,551.54 307.59,530.69 313.54,542.56 319.49,558.45 325.45,539.92 331.40,523.83 337.35,551.75 343.31,544.91 349.26,541.72 355.21,562.98 361.17,537.42 367.12,528.77 373.07,540.10 379.03,541.90 384.98,523.54 390.93,519.53 396.89,509.23 402.84,548.69 408.79,547.84 414.75,543.49 420.70,544.78 426.65,553.30 432.61,553.40 438.56,529.39 444.51,529.23 450.46,553.45 456.42,522.58 462.37,565.59 468.32,558.36 474.28,559.99 480.23,554.30 486.18,562.92 492.14,546.65 498.09,552.84 504.04,551.13 510.00,541.11 515.95,553.43 521.90,556.42 527.86,559.00 533.81,564.49 539.76,549.74 545.72,549.76 551.67,566.12 557.62,552.49 563.58,570.83 569.53,552.84 575.48,556.96 581.43,571.85 587.39,554.14 593.34,550.56 599.29,561.19 605.25,565.45 611.20,573.94 617.15,561.90 623.11,556.40 629.06,568.43 635.01,561.51 640.97,568.89 646.92,566.53 652.87,554.96 658.83,550.46 664.78,553.01 670.73,568.07 676.69,574.50 682.64,564.54 688.59,564.09 694.55,569.47 700.50,558.92 706.45,572.62 712.40,570.27 718.36,568.43 724.31,568.54 730.26,571.26 736.22,574.64 742.17,578.83 748.12,556.23 754.08,551.87 760.03,572.78 765.98,582.52 771.94,561.25 777.89,554.40 783.84,553.24 789.80,558.65 795.75,557.48 801.70,563.21 807.66,585.47 813.61,567.79 819.56,580.89 825.52,587.81 831.47,571.45 837.42,582.44 843.37,581.55 849.33,589.17 855.28,578.46 861.23,587.57 867.19,581.31 873.14,566.96 879.09,540.35 885.05,568.93 891.00,553.07 896.95,573.60 902.91,582.17 908.86,591.02 914.81,581.08 920.77,581.64 926.72,582.92 932.67,586.83 938.63,575.06 944.58,585.58 950.53,566.17 956.48,581.21 962.44,581.96 968.39,570.05 974.34,568.62 980.00,555.25" fill="none" stroke="#1f77b4" stroke-width="2.5" stroke-linejoin="round" stroke-linecap="round"/>
<line x1="1010" y1="90" x2="1038" y2="90" stroke="#1f77b4" stroke-width="3"/>
<text x="1048" y="95" font-size="15" font-family="Arial" fill="#111827">fifo_4096</text>
<polyline points="90.00,109.31 93.27,482.48 99.23,488.03 105.18,470.95 111.13,449.22 117.09,478.38 123.04,485.23 128.99,425.19 134.95,448.55 140.90,469.68 146.85,482.83 152.81,437.76 158.76,452.29 164.71,444.31 170.67,430.92 176.62,433.27 182.57,453.96 188.53,410.70 194.48,391.33 200.43,420.17 206.38,418.55 212.34,425.51 218.29,448.56 224.24,429.77 230.20,443.01 236.15,415.05 242.10,432.01 248.06,416.51 254.01,508.20 259.96,494.84 265.92,485.95 271.87,489.22 277.82,489.34 283.78,489.67 289.73,497.46 295.68,484.48 301.64,473.95 307.59,482.77 313.54,475.95 319.49,469.34 325.45,500.80 331.40,480.93 337.35,462.71 343.31,489.23 349.26,478.25 355.21,513.47 361.17,493.25 367.12,477.40 373.07,492.66 379.03,507.99 384.98,496.11 390.93,488.83 396.89,469.05 402.84,496.44 408.79,500.96 414.75,474.60 420.70,490.91 426.65,492.98 432.61,493.65 438.56,485.85 444.51,450.16 450.46,472.64 456.42,475.60 462.37,515.96 468.32,482.77 474.28,494.85 480.23,512.37 486.18,510.41 492.14,506.42 498.09,504.07 504.04,507.34 510.00,482.17 515.95,516.21 521.90,514.86 527.86,501.15 533.81,496.50 539.76,514.36 545.72,519.62 551.67,518.61 557.62,482.46 563.58,449.66 569.53,507.99 575.48,515.10 581.43,514.44 587.39,496.73 593.34,525.38 599.29,505.81 605.25,519.77 611.20,503.05 617.15,531.87 623.11,523.97 629.06,526.29 635.01,504.84 640.97,533.95 646.92,520.20 652.87,514.47 658.83,522.42 664.78,517.23 670.73,503.83 676.69,496.87 682.64,486.73 688.59,524.32 694.55,530.78 700.50,505.38 706.45,529.11 712.40,522.30 718.36,534.01 724.31,539.21 730.26,533.10 736.22,523.74 742.17,511.24 748.12,530.48 754.08,521.96 760.03,485.44 765.98,532.66 771.94,499.63 777.89,479.90 783.84,477.92 789.80,537.34 795.75,533.16 801.70,505.24 807.66,512.06 813.61,508.22 819.56,508.84 825.52,492.06 831.47,505.24 837.42,524.99 843.37,532.99 849.33,544.68 855.28,553.02 861.23,547.12 867.19,528.88 873.14,534.75 879.09,539.47 885.05,544.14 891.00,526.51 896.95,529.65 902.91,509.55 908.86,485.18 914.81,500.67 920.77,502.99 926.72,509.12 932.67,526.23 938.63,544.33 944.58,518.63 950.53,529.68 956.48,537.77 962.44,530.21 968.39,521.63 974.34,533.08 980.00,518.85" fill="none" stroke="#ff7f0e" stroke-width="2.5" stroke-linejoin="round" stroke-linecap="round"/>
<line x1="1010" y1="120" x2="1038" y2="120" stroke="#ff7f0e" stroke-width="3"/>
<text x="1048" y="125" font-size="15" font-family="Arial" fill="#111827">lru_2048</text>
<polyline points="90.00,117.95 93.27,525.22 99.23,552.43 105.18,556.11 111.13,547.51 117.09,565.92 123.04,562.39 128.99,534.32 134.95,542.82 140.90,557.75 146.85,552.74 152.81,527.29 158.76,536.09 164.71,536.81 170.67,530.95 176.62,511.60 182.57,539.43 188.53,509.47 194.48,510.01 200.43,522.63 206.38,520.95 212.34,526.50 218.29,538.71 224.24,530.08 230.20,529.72 236.15,522.81 242.10,525.47 248.06,534.14 254.01,567.37 259.96,565.04 265.92,566.38 271.87,567.62 277.82,580.06 283.78,563.24 289.73,566.87 295.68,559.17 301.64,559.18 307.59,549.42 313.54,568.49 319.49,555.64 325.45,567.16 331.40,562.85 337.35,568.31 343.31,552.32 349.26,549.83 355.21,551.77 361.17,551.37 367.12,560.98 373.07,563.40 379.03,569.10 384.98,568.06 390.93,554.44 396.89,551.53 402.84,550.55 408.79,551.30 414.75,560.29 420.70,565.18 426.65,554.74 432.61,572.56 438.56,576.42 444.51,561.88 450.46,544.40 456.42,555.11 462.37,562.68 468.32,554.81 474.28,567.08 480.23,578.97 486.18,567.74 492.14,572.46 498.09,561.04 504.04,584.62 510.00,569.85 515.95,561.65 521.90,558.96 527.86,567.78 533.81,572.84 539.76,576.51 545.72,573.01 551.67,576.05 557.62,582.32 563.58,577.01 569.53,554.99 575.48,578.55 581.43,574.28 587.39,581.92 593.34,572.02 599.29,560.50 605.25,577.19 611.20,586.84 617.15,570.15 623.11,576.04 629.06,568.93 635.01,577.20 640.97,585.54 646.92,576.76 652.87,575.28 658.83,562.45 664.78,573.23 670.73,584.19 676.69,591.10 682.64,590.29 688.59,575.84 694.55,576.97 700.50,581.49 706.45,586.69 712.40,578.59 718.36,579.60 724.31,590.70 730.26,576.60 736.22,570.07 742.17,562.93 748.12,574.47 754.08,569.26 760.03,581.09 765.98,590.41 771.94,585.32 777.89,586.11 783.84,592.73 789.80,586.07 795.75,595.25 801.70,589.91 807.66,586.52 813.61,592.48 819.56,590.50 825.52,596.62 831.47,594.23 837.42,585.76 843.37,580.01 849.33,568.28 855.28,581.00 861.23,575.97 867.19,585.05 873.14,594.55 879.09,597.60 885.05,586.00 891.00,586.89 896.95,595.90 902.91,596.45 908.86,587.30 914.81,579.00 920.77,592.34 926.72,593.04 932.67,594.64 938.63,586.17 944.58,580.98 950.53,584.67 956.48,570.83 962.44,582.31 968.39,593.88 974.34,599.84 980.00,600.69" fill="none" stroke="#2ca02c" stroke-width="2.5" stroke-linejoin="round" stroke-linecap="round"/>
<line x1="1010" y1="150" x2="1038" y2="150" stroke="#2ca02c" stroke-width="3"/>
<text x="1048" y="155" font-size="15" font-family="Arial" fill="#111827">lru_4096</text>
<polyline points="90.00,118.22 93.27,540.87 99.23,560.66 105.18,529.64 111.13,543.24 117.09,554.87 123.04,539.54 128.99,505.22 134.95,508.48 140.90,516.39 146.85,508.19 152.81,497.89 158.76,526.73 164.71,483.15 170.67,496.91 176.62,515.85 182.57,498.05 188.53,500.33 194.48,520.73 200.43,516.55 206.38,499.63 212.34,497.54 218.29,502.80 224.24,518.29 230.20,568.83 236.15,562.16 242.10,560.80 248.06,546.70 254.01,568.14 259.96,561.00 265.92,562.04 271.87,567.61 277.82,556.66 283.78,539.83 289.73,554.80 295.68,531.83 301.64,517.42 307.59,509.81 313.54,536.69 319.49,559.22 325.45,547.88 331.40,544.48 337.35,545.87 343.31,535.53 349.26,560.01 355.21,550.84 361.17,541.77 367.12,556.47 373.07,540.87 379.03,548.66 384.98,558.85 390.93,549.37 396.89,559.60 402.84,544.19 408.79,551.45 414.75,561.37 420.70,570.28 426.65,561.77 432.61,571.32 438.56,548.52 444.51,547.78 450.46,561.27 456.42,541.78 462.37,560.11 468.32,563.50 474.28,565.04 480.23,555.57 486.18,543.73 492.14,551.32 498.09,565.41 504.04,575.27 510.00,568.81 515.95,579.01 521.90,569.55 527.86,567.26 533.81,575.44 539.76,575.18 545.72,548.55 551.67,569.45 557.62,548.46 563.58,572.89 569.53,577.69 575.48,556.58 581.43,578.20 587.39,552.84 593.34,568.91 599.29,561.59 605.25,573.95 611.20,564.42 617.15,575.36 623.11,579.40 629.06,555.92 635.01,569.88 640.97,553.21 646.92,561.88 652.87,577.24 658.83,572.58 664.78,548.46 670.73,568.46 676.69,572.70 682.64,565.73 688.59,574.16 694.55,588.51 700.50,578.33 706.45,575.13 712.40,571.31 718.36,572.69 724.31,547.47 730.26,566.26 736.22,567.44 742.17,579.77 748.12,584.40 754.08,579.25 760.03,568.10 765.98,548.83 771.94,573.34 777.89,552.79 783.84,569.44 789.80,580.97 795.75,587.56 801.70,571.71 807.66,584.85 813.61,592.36 819.56,581.12 825.52,592.64 831.47,587.24 837.42,589.65 843.37,579.69 849.33,586.62 855.28,589.06 861.23,573.11 867.19,573.55 873.14,557.35 879.09,557.53 885.05,576.41 891.00,582.47 896.95,587.94 902.91,587.63 908.86,582.09 914.81,586.13 920.77,592.49 926.72,577.37 932.67,580.35 938.63,581.56 944.58,587.43 950.53,577.48 956.48,572.24 962.44,575.39 968.39,553.47 974.34,577.51 980.00,592.14" fill="none" stroke="#d62728" stroke-width="2.5" stroke-linejoin="round" stroke-linecap="round"/>
<line x1="1010" y1="180" x2="1038" y2="180" stroke="#d62728" stroke-width="3"/>
<text x="1048" y="185" font-size="15" font-family="Arial" fill="#111827">random_4096</text>
</svg>